<?xml version="1.0" ?><!DOCTYPE svg  PUBLIC '-//W3C//DTD SVG 1.1//EN'  'http://www.w3.org/Graphics/SVG/1.1/DTD/svg11.dtd'><svg height="171px" style="enable-background:new 0 0 168 171;" version="1.1" viewBox="0 0 168 171" width="168px" xml:space="preserve" xmlns="http://www.w3.org/2000/svg" xmlns:xlink="http://www.w3.org/1999/xlink"><style type="text/css">
<![CDATA[
	.st0{fill:#EF3E42;}
	.st1{fill:#54B948;}
	.st2{fill:#FFC425;}
	.st3{fill:#FFFFFF;}
	.st4{fill:none;}
]]>
</style><defs/><polygon class="st1" points="17.1,16.3 151,16.3 151,150.2 17.1,150.2 17.1,16.3 "/><path class="st3" d="M49.6,47.7c-3.2,3.2-3.2,8.3,0,11.4c3.2,3.2,8.3,3.2,11.4,0c3.2-3.2,3.2-8.3,0-11.4  C57.9,44.5,52.8,44.5,49.6,47.7L49.6,47.7z M133.3,131c0,2.1-0.9,3.1-3.2,3.1l-14.5,0.1l-43-42.8c-10,2.6-21.1,0.2-29-7.7  c-11.8-11.8-11.8-30.8,0-42.6c11.8-11.8,30.8-11.8,42.6,0c8,7.9,10.4,19.2,7.6,29.4l8.4,8.6l-0.1,13.3l10.3-0.1l-0.1,10.3l10.3-0.1  l-0.1,10.4l10.7-0.1L133.3,131L133.3,131z"/><path d="M160,6.8c0.3,0,0.6,0.3,0.6,0.6v151.8c0,0.3-0.3,0.6-0.6,0.6H8.2c-0.3,0-0.6-0.3-0.6-0.6V7.3c0-0.3,0.3-0.6,0.6-0.6H160  L160,6.8z M159.4,7.9H8.8v150.6h150.6V7.9L159.4,7.9z"/><rect class="st4" height="171" id="_x3C_Slice_x3E__48_" width="168"/></svg>